<svg xmlns="http://www.w3.org/2000/svg" width="27.549" height="27.549" viewBox="0 0 27.549 27.549">
  <g id="Group_1939" data-name="Group 1939" transform="translate(-15.226)">
    <g id="ecology" transform="translate(15.226)">
      <path id="Path_2304" data-name="Path 2304" d="M84.9.807A.808.808,0,0,0,84.092,0a10.331,10.331,0,0,0-9.508,6.316A10.332,10.332,0,0,0,65.074,0a.807.807,0,0,0-.807.807,10.33,10.33,0,0,0,9.509,10.285v5.276a.807.807,0,1,0,1.614,0V11.092A10.33,10.33,0,0,0,84.9.807Zm-18.978.848a8.717,8.717,0,0,1,7.813,7.813,8.718,8.718,0,0,1-7.813-7.813Zm9.509,7.813a8.718,8.718,0,0,1,7.813-7.813A8.719,8.719,0,0,1,75.431,9.468Z" transform="translate(-60.809)" fill="#364f6b"/>
      <path id="Path_2305" data-name="Path 2305" d="M8.726,168.251a2.639,2.639,0,0,0-3.654-.078V164.93a4.269,4.269,0,0,0-4.264-4.264h0a.807.807,0,0,0-.807.807v10.374a.807.807,0,0,0,.236.571l4.951,4.951v1.395a.807.807,0,0,0,.807.807h6.051a.807.807,0,0,0,.807-.807v-4.619a4.237,4.237,0,0,0-1.249-3.016Zm2.512,9.705H6.8v-.922a.807.807,0,0,0-.236-.571l-4.951-4.951v-9.105a2.659,2.659,0,0,1,1.844,2.523v5.188a.807.807,0,0,0,.236.571l3.458,3.458a.807.807,0,1,0,1.141-1.141l-2.161-2.161a1.027,1.027,0,0,1,1.452-1.452l2.877,2.878a2.633,2.633,0,0,1,.776,1.874v3.812Z" transform="translate(0 -152.021)" fill="#364f6b"/>
      <path id="Path_2306" data-name="Path 2306" d="M285.179,160.667h0a4.269,4.269,0,0,0-4.264,4.264v3.243a2.639,2.639,0,0,0-3.654.078l-2.878,2.878a4.237,4.237,0,0,0-1.249,3.016v4.619a.807.807,0,0,0,.807.807h6.051a.807.807,0,0,0,.807-.807v-1.395l4.951-4.951a.807.807,0,0,0,.236-.571V161.474A.807.807,0,0,0,285.179,160.667Zm-.807,10.847-4.951,4.951a.807.807,0,0,0-.236.571v.922h-4.437v-3.812a2.633,2.633,0,0,1,.776-1.874l2.878-2.878a1.027,1.027,0,0,1,1.452,1.452l-2.161,2.161a.807.807,0,1,0,1.141,1.141l3.458-3.458a.807.807,0,0,0,.236-.571v-5.188a2.659,2.659,0,0,1,1.844-2.523v9.105Z" transform="translate(-258.438 -152.022)" fill="#364f6b"/>
    </g>
  </g>
</svg>
