<svg xmlns="http://www.w3.org/2000/svg" width="27.549" height="27.549" viewBox="0 0 27.549 27.549">
  <g id="Group_1940" data-name="Group 1940" transform="translate(-19.225)">
    <g id="rate" transform="translate(19.225)">
      <path id="Path_2295" data-name="Path 2295" d="M26.473,0H1.076A1.076,1.076,0,0,0,0,1.076V22.169a1.076,1.076,0,0,0,1.076,1.076H9.024l3.989,3.989a1.076,1.076,0,0,0,1.522,0l3.989-3.989h7.948a1.076,1.076,0,0,0,1.076-1.076V1.076A1.076,1.076,0,0,0,26.473,0ZM25.4,21.092H18.079a1.076,1.076,0,0,0-.761.315l-3.544,3.544-3.544-3.544a1.076,1.076,0,0,0-.761-.315H2.152V2.152H25.4ZM9.676,13.545l-.6,3.492a1.077,1.077,0,0,0,1.561,1.134l3.136-1.649,3.136,1.649a1.077,1.077,0,0,0,1.561-1.134l-.6-3.492,2.537-2.473a1.077,1.077,0,0,0-.6-1.836l-3.506-.509L14.74,5.55a1.077,1.077,0,0,0-1.93,0L11.242,8.727l-3.506.509a1.077,1.077,0,0,0-.6,1.836Zm2.435-2.769a1.076,1.076,0,0,0,.81-.589l.853-1.729.853,1.729a1.076,1.076,0,0,0,.81.589l1.908.277L15.965,12.4a1.076,1.076,0,0,0-.309.953l.326,1.9-1.706-.9a1.076,1.076,0,0,0-1,0l-1.706.9.326-1.9a1.076,1.076,0,0,0-.309-.953L10.2,11.053Z" fill="#364f6b"/>
    </g>
  </g>
</svg>
